
<global>
amp_veltrack=0
ampeg_attack=0.001
ampeg_release=1.25
</global>

<group>
color=red
group_label=Main_Hits_RR1
seq_length=4
seq_position=1

<region>
hivel=25
key=D3
lovel=0
offset=3468
sample=Snare_HotRods_Hits_P_D3_RR1.opus
</region>

<region>
hivel=50
key=D3
lovel=26
offset=873
sample=Snare_HotRods_Hits_MP_D3_RR1.opus
</region>

<region>
hivel=75
key=D3
lovel=51
offset=694
sample=Snare_HotRods_Hits_MF_D3_RR1.opus
</region>

<region>
hivel=127
key=D3
lovel=101
offset=719
sample=Snare_HotRods_Hits_FF_D3_RR1.opus
</region>

<region>
hivel=100
key=D3
lovel=76
offset=788
sample=Snare_HotRods_Hits_F_D3_RR1.opus
</region>
</group>

<group>
color=red
group_label=Main_Hits_RR3
seq_length=4
seq_position=2

<region>
hivel=25
key=D3
lovel=0
offset=5038
sample=Snare_HotRods_Hits_P_D3_RR3.opus
</region>

<region>
hivel=50
key=D3
lovel=26
offset=834
sample=Snare_HotRods_Hits_MP_D3_RR3.opus
</region>

<region>
hivel=75
key=D3
lovel=51
offset=836
sample=Snare_HotRods_Hits_MF_D3_RR3.opus
</region>

<region>
hivel=127
key=D3
lovel=101
offset=703
sample=Snare_HotRods_Hits_FF_D3_RR3.opus
</region>

<region>
hivel=100
key=D3
lovel=76
offset=838
sample=Snare_HotRods_Hits_F_D3_RR3.opus
</region>
</group>

<group>
color=red
group_label=Main_Hits_RR5
seq_length=4
seq_position=3

<region>
hivel=25
key=D3
lovel=0
offset=797
sample=Snare_HotRods_Hits_P_D3_RR5.opus
</region>

<region>
hivel=50
key=D3
lovel=26
offset=784
sample=Snare_HotRods_Hits_MP_D3_RR5.opus
</region>

<region>
hivel=75
key=D3
lovel=51
offset=855
sample=Snare_HotRods_Hits_MF_D3_RR5.opus
</region>

<region>
hivel=127
key=D3
lovel=101
offset=736
sample=Snare_HotRods_Hits_FF_D3_RR5.opus
</region>

<region>
hivel=100
key=D3
lovel=76
offset=714
sample=Snare_HotRods_Hits_F_D3_RR5.opus
</region>
</group>

<group>
color=red
group_label=Main_Hits_RR7
seq_length=4
seq_position=4

<region>
hivel=25
key=D3
lovel=0
offset=704
sample=Snare_HotRods_Hits_P_D3_RR7.opus
</region>

<region>
hivel=50
key=D3
lovel=26
offset=1561
sample=Snare_HotRods_Hits_MP_D3_RR7.opus
</region>

<region>
hivel=75
key=D3
lovel=51
offset=811
sample=Snare_HotRods_Hits_MF_D3_RR7.opus
</region>

<region>
hivel=127
key=D3
lovel=101
offset=766
sample=Snare_HotRods_Hits_FF_D3_RR7.opus
</region>

<region>
hivel=100
key=D3
lovel=76
offset=837
sample=Snare_HotRods_Hits_F_D3_RR7.opus
</region>
</group>

<group>
color=green
group_label=Alt_Hits_RR1
seq_length=2
seq_position=1

<region>
hivel=25
key=D4
lovel=0
offset=4667
sample=Snare_HotRods_Rim_Hit_P_D3_RR1.opus
</region>

<region>
hivel=50
key=D4
lovel=26
offset=4283
sample=Snare_HotRods_Rim_Hit_MP_D3_RR1.opus
</region>

<region>
hivel=75
key=D4
lovel=51
offset=2993
sample=Snare_HotRods_Rim_Hit_MF_D3_RR1.opus
</region>

<region>
hivel=127
key=D4
lovel=101
offset=764
sample=Snare_HotRods_Rim_Hit_FF_D3_RR1.opus
</region>

<region>
hivel=25
key=D#4
lovel=0
offset=3959
sample=Snare_HotRods_Shell_Hit_P_D3_RR1.opus
</region>

<region>
hivel=50
key=D#4
lovel=26
offset=1981
sample=Snare_HotRods_Shell_Hit_MP_D3_RR1.opus
</region>

<region>
hivel=75
key=D#4
lovel=51
offset=3120
sample=Snare_HotRods_Shell_Hit_MF_D3_RR1.opus
</region>

<region>
hivel=127
key=D#4
lovel=76
offset=822
sample=Snare_HotRods_Shell_Hit_FF_D3_RR1.opus
</region>

<region>
hivel=100
key=D4
lovel=76
offset=3664
sample=Snare_HotRods_Shell_Hit_F_D3_RR1.opus
</region>
</group>

<group>
color=green
group_label=Alt_Hits_RR3
seq_length=2
seq_position=2

<region>
hivel=25
key=D4
lovel=0
offset=4295
sample=Snare_HotRods_Rim_Hit_P_D3_RR3.opus
</region>

<region>
hivel=50
key=D4
lovel=26
offset=3620
sample=Snare_HotRods_Rim_Hit_MP_D3_RR3.opus
</region>

<region>
hivel=75
key=D4
lovel=51
offset=3936
sample=Snare_HotRods_Rim_Hit_MF_D3_RR3.opus
</region>

<region>
hivel=127
key=D4
lovel=101
offset=762
sample=Snare_HotRods_Rim_Hit_FF_D3_RR3.opus
</region>

<region>
hivel=100
key=D4
lovel=76
offset=771
sample=Snare_HotRods_Rim_Hit_F_D3_RR3.opus
</region>

<region>
hivel=25
key=D#4
lovel=0
offset=6741
sample=Snare_HotRods_Shell_Hit_P_D3_RR3.opus
</region>

<region>
hivel=50
key=D#4
lovel=26
offset=2846
sample=Snare_HotRods_Shell_Hit_MP_D3_RR3.opus
</region>

<region>
hivel=75
key=D#4
lovel=51
offset=2501
sample=Snare_HotRods_Shell_Hit_MF_D3_RR3.opus
</region>

<region>
hivel=127
key=D#4
lovel=101
offset=772
sample=Snare_HotRods_Shell_Hit_FF_D3_RR3.opus
</region>

<region>
hivel=100
key=D#4
lovel=76
offset=794
sample=Snare_HotRods_Shell_Hit_F_D3_RR3.opus
</region>
</group>